<?xml version="1.0" encoding="UTF-8"?>
<svg xmlns="http://www.w3.org/2000/svg" version="1.1" xmlns:xlink="http://www.w3.org/1999/xlink" viewBox="0 0 200 55">
  <defs>
    <style>
      .cls-1, .cls-2 {
        fill: #e0e0d9;
      }

      .cls-3 {
        fill: url(#Nueva_muestra_de_degradado_3);
      }

      .cls-3, .cls-4, .cls-5 {
        stroke: #1c1a1c;
        stroke-miterlimit: 10;
        stroke-width: .2px;
      }

      .cls-6 {
        isolation: isolate;
      }

      .cls-7, .cls-8, .cls-2, .cls-9, .cls-10, .cls-11 {
        stroke-width: 0px;
      }

      .cls-7, .cls-12 {
        mix-blend-mode: multiply;
      }

      .cls-7, .cls-5 {
        fill: #a64017;
      }

      .cls-8 {
        fill: url(#Nueva_muestra_de_degradado_3-6);
      }

      .cls-9 {
        fill: url(#Nueva_muestra_de_degradado_3-4);
      }

      .cls-10 {
        fill: url(#Nueva_muestra_de_degradado_3-3);
      }

      .cls-11 {
        fill: url(#Nueva_muestra_de_degradado_3-5);
      }

      .cls-4 {
        fill: url(#Nueva_muestra_de_degradado_3-2);
      }
    </style>
    <linearGradient id="Nueva_muestra_de_degradado_3" data-name="Nueva muestra de degradado 3" x1="125.8" y1="51.8" x2="125.8" y2="30.5" gradientTransform="translate(0 56) scale(1 -1)" gradientUnits="userSpaceOnUse">
      <stop offset="0" stop-color="#fff"/>
      <stop offset=".5" stop-color="#1c1a1c"/>
      <stop offset=".8" stop-color="#c2bfb7"/>
      <stop offset=".9" stop-color="#1c1a1c"/>
      <stop offset="1" stop-color="#fff"/>
      <stop offset="1" stop-color="#fff"/>
    </linearGradient>
    <linearGradient id="Nueva_muestra_de_degradado_3-2" data-name="Nueva muestra de degradado 3" x1="125.6" y1="27.5" x2="125.6" y2="6.2" xlink:href="#Nueva_muestra_de_degradado_3"/>
    <linearGradient id="Nueva_muestra_de_degradado_3-3" data-name="Nueva muestra de degradado 3" x1="6.9" y1="22.4" x2="54.6" y2="22.4" gradientTransform="matrix(1,0,0,1,0,0)" xlink:href="#Nueva_muestra_de_degradado_3"/>
    <linearGradient id="Nueva_muestra_de_degradado_3-4" data-name="Nueva muestra de degradado 3" x1=".6" y1="30.7" x2="31.4" y2="30.7" gradientTransform="matrix(1,0,0,1,0,0)" xlink:href="#Nueva_muestra_de_degradado_3"/>
    <linearGradient id="Nueva_muestra_de_degradado_3-5" data-name="Nueva muestra de degradado 3" x1="7.1" y1="48.4" x2="7.1" y2="48.4" gradientTransform="matrix(1,0,0,1,0,0)" xlink:href="#Nueva_muestra_de_degradado_3"/>
    <linearGradient id="Nueva_muestra_de_degradado_3-6" data-name="Nueva muestra de degradado 3" x1="53" y1="43.1" x2="53" y2="43.1" gradientTransform="matrix(1,0,0,1,0,0)" xlink:href="#Nueva_muestra_de_degradado_3"/>
  </defs>
  <g class="cls-6">
    <g id="Capa_1" data-name="Capa 1">
      <g>
        <path class="cls-3" d="M71.6,5.5c.8,0,1.6.4,2.5.7v5.3c-1.2-1.2-2.7-1.9-4.5-1.9s-1.5.1-2.2.4c-.7.2-1.2.6-1.7,1s-.9.9-1.1,1.5c-.3.6-.4,1.2-.4,1.9s0,1.3.4,1.9c.3.6.7,1.1,1.2,1.5s1.1.8,1.7,1c.7.2,1.4.4,2.1.4,1.7,0,3.2-.6,4.5-1.8v5.2l-.5.2c-.8.2-1.6.4-2.3.5-.7.1-1.4.2-2.1.2-1.4,0-2.7-.2-4-.7-1.3-.4-2.4-1.1-3.4-1.9s-1.8-1.8-2.3-2.9-.9-2.3-.9-3.6.3-2.5.9-3.6c.6-1.1,1.4-2,2.3-2.8,1-.8,2.1-1.4,3.4-1.9,1.3-.4,2.6-.7,4.1-.7s1.6,0,2.4.2h0ZM82.2,14.3c0-.7.2-1.3.5-1.9.3-.6.7-1.1,1.2-1.5s1.1-.8,1.8-1c.7-.2,1.4-.4,2.2-.4s1.5.1,2.2.4c.4.1.8.3,1.2.5l4.4-2.8c-.9-.7-2-1.3-3.3-1.7-1.4-.5-2.9-.7-4.5-.7s-3.2.2-4.5.7c-1.4.5-2.5,1.1-3.5,1.9s-1.8,1.8-2.3,2.9c-.6,1.1-.8,2.3-.8,3.5s.3,2.4.8,3.5c.2.3.4.7.6,1l4.5-2.8c-.2-.5-.4-1.1-.4-1.7h0ZM93.7,14.3c0,.7-.2,1.3-.5,1.9-.3.6-.7,1.1-1.2,1.5s-1.1.7-1.8,1c-.7.2-1.4.3-2.2.3s-1.5-.1-2.2-.3c-.7-.2-1.3-.6-1.8-1,0,0-.2-.2-.3-.3l-5.1,2c.4.5.8.9,1.3,1.3,1,.8,2.2,1.4,3.5,1.9,1.4.5,2.9.7,4.5.7s3.1-.2,4.5-.7,2.6-1.1,3.6-1.9,1.8-1.8,2.3-2.9.8-2.3.8-3.5-.2-2-.5-2.9l-5.1,2v.9h.2ZM113,15.8l6.4,7h-6.6l-5-6.6v6.6h-5.3V5.8h8.2c1.1,0,2.1,0,3,.4.8.3,1.5.7,2.1,1.1.5.5,1,1,1.2,1.7.3.6.4,1.3.4,2,0,1.3-.4,2.3-1.1,3.2-.7.8-1.8,1.4-3.3,1.6ZM112,11.3c0-.7-.3-1.2-.8-1.6-.6-.4-1.4-.5-2.4-.5h-1v4.2h1c1,0,1.8-.2,2.4-.5.6-.4.8-.9.8-1.6ZM119.6,9.5h4.3v13.3h5.3v-13.3h4.3v-3.8h-13.9s0,3.8,0,3.8ZM135.9,22.8h11.5v-3.8h-6.3v-2.9h5.9v-3.8h-5.9v-2.8h6.3v-3.8h-11.5v17h0ZM177.3,11.1c.5,1,.8,2.1.8,3.2s-.3,2.2-.8,3.2c-.5,1-1.2,1.9-2.1,2.7-.9.8-2,1.4-3.2,1.9s-2.5.7-3.9.7h-7.8V5.8h7.8c1.4,0,2.7.2,3.9.7s2.3,1.1,3.2,1.9,1.6,1.7,2.1,2.7ZM172.6,14.3c0-.7-.1-1.3-.4-1.9-.3-.6-.6-1.1-1.1-1.5s-1.1-.7-1.8-1c-.7-.2-1.5-.4-2.4-.4h-1.2v9.5h1.2c.9,0,1.7-.1,2.4-.4.7-.2,1.3-.6,1.8-1s.9-.9,1.1-1.5c.3-.6.4-1.2.4-1.9h0ZM181.4,22.8h11.5v-3.8h-6.3v-2.9h5.9v-3.8h-5.9v-2.8h6.3v-3.8h-11.5v17h0Z"/>
        <g class="cls-12">
          <path class="cls-5" d="M82.2,14.3c0-.7.2-1.3.5-1.9s.7-1.1,1.2-1.5,1.1-.7,1.8-1c.7-.2,1.4-.3,2.2-.3s1.5.1,2.2.3c.4.1.8.3,1.1.5l4.4-2.8c-.9-.7-2-1.3-3.3-1.7-1.4-.5-2.9-.7-4.5-.7s-3.2.2-4.5.7c-1.4.5-2.5,1.1-3.5,1.9s-1.8,1.8-2.3,2.9c-.6,1.1-.8,2.3-.8,3.5s.3,2.4.8,3.5c.2.3.4.7.6,1l4.5-2.8c-.2-.5-.4-1.1-.4-1.7h0Z"/>
          <path class="cls-5" d="M93.7,14.3c0,.7-.2,1.3-.5,1.9-.3.6-.7,1.1-1.2,1.5s-1.1.7-1.8,1c-.7.2-1.4.3-2.2.3s-1.5-.1-2.2-.3c-.7-.2-1.3-.6-1.8-1,0,0-.2-.2-.3-.3l-5.1,2c.4.5.8.9,1.3,1.3,1,.8,2.2,1.4,3.5,1.9,1.4.5,2.9.7,4.5.7s3.1-.2,4.5-.7,2.6-1.1,3.6-1.9,1.8-1.8,2.3-2.9.8-2.3.8-3.5-.2-2-.5-2.9l-5.1,2v.9h.2Z"/>
        </g>
      </g>
      <g>
        <path class="cls-4" d="M91.1,30.1l7.7,17h-5.6l-1.2-3h-7.5l-1.2,3h-5.6l7.7-17h5.7ZM90.6,40.8l-2.4-5.7-2.4,5.7h4.8ZM110.1,29.6c-1.4,0-2.8.2-4.1.7-1.3.4-2.4,1.1-3.4,1.9-1,.8-1.8,1.7-2.3,2.8-.6,1.1-.9,2.3-.9,3.6s.3,2.5.9,3.6,1.4,2.1,2.3,2.9c1,.8,2.1,1.4,3.4,1.9,1.3.4,2.6.7,4,.7s1.4,0,2.1-.2c.7,0,1.4-.3,2.3-.5l.5-.2v-5.2c-1.3,1.2-2.9,1.8-4.5,1.8s-1.5,0-2.1-.4c-.7-.2-1.2-.6-1.7-1s-.9-.9-1.2-1.5c-.3-.6-.4-1.2-.4-1.9s0-1.3.4-1.9c.3-.6.7-1.1,1.1-1.5.5-.4,1.1-.7,1.7-1,.7-.2,1.4-.4,2.2-.4,1.8,0,3.3.6,4.5,1.9v-5.3c-.9-.3-1.7-.5-2.5-.7-.8,0-1.6-.2-2.4-.2h0ZM118.3,47.2h11.5v-3.8h-6.3v-2.9h5.9v-3.8h-5.9v-2.8h6.3v-3.8h-11.5v17h0ZM144.1,40.2l6.4,7h-6.5l-5-6.6v6.6h-5.3v-17h8.2c1.1,0,2.1,0,3,.4.8.3,1.5.7,2.1,1.1.5.5,1,1,1.2,1.7.3.6.4,1.3.4,2,0,1.3-.4,2.3-1.1,3.2-.7.8-1.8,1.4-3.3,1.6h0ZM143.1,35.6c0-.7-.3-1.2-.8-1.6-.6-.4-1.3-.5-2.4-.5h-1v4.2h1c1,0,1.8-.2,2.4-.5.6-.4.8-.9.8-1.6ZM156.8,38.6c0-.7.2-1.3.5-1.9.3-.6.7-1.1,1.2-1.5s1.1-.8,1.8-1,1.4-.4,2.2-.4,1.5,0,2.2.4c.4,0,.8.3,1.1.5l4.4-2.8c-.9-.7-2-1.3-3.3-1.7-1.4-.5-2.9-.7-4.5-.7s-3.2.2-4.5.7c-1.4.5-2.5,1.1-3.5,1.9-1,.8-1.8,1.8-2.3,2.9-.6,1.1-.8,2.3-.8,3.5s.3,2.4.8,3.5c.2.3.4.7.6,1l4.5-2.8c-.2-.5-.4-1.1-.4-1.7h0ZM168.2,38.6c0,.7-.2,1.3-.5,1.9-.3.6-.7,1.1-1.2,1.5s-1.1.7-1.8,1c-.7.2-1.4.3-2.2.3s-1.5,0-2.2-.3-1.3-.6-1.8-1c-.1,0-.2-.2-.3-.3l-5.1,2c.4.5.8.9,1.3,1.3,1,.8,2.2,1.4,3.5,1.9,1.4.5,2.9.7,4.5.7s3.1-.2,4.5-.7,2.6-1.1,3.6-1.9c1-.8,1.8-1.8,2.3-2.9.6-1.1.8-2.3.8-3.5s-.2-2-.5-2.9l-5.1,2c0,.3.1.6.1.9h0Z"/>
        <g class="cls-12">
          <path class="cls-5" d="M156.8,38.6c0-.7.1-1.3.5-1.9.3-.6.7-1.1,1.2-1.5s1.1-.7,1.8-1c.7-.2,1.4-.3,2.2-.3s1.5,0,2.2.3c.4,0,.8.3,1.1.5l4.4-2.8c-.9-.7-2-1.3-3.3-1.7-1.4-.5-2.9-.7-4.5-.7s-3.2.2-4.5.7c-1.4.5-2.5,1.1-3.5,1.9-1,.8-1.8,1.8-2.3,2.9-.6,1.1-.8,2.3-.8,3.5s.3,2.4.8,3.5c.2.3.4.7.6,1l4.5-2.8c-.2-.5-.4-1.1-.4-1.7h0Z"/>
          <path class="cls-5" d="M168.2,38.6c0,.7-.2,1.3-.5,1.9-.3.6-.7,1.1-1.2,1.5s-1.1.7-1.8,1c-.7.2-1.4.3-2.2.3s-1.5,0-2.2-.3-1.3-.6-1.8-1c-.1,0-.2-.2-.3-.3l-5.1,2c.4.5.8.9,1.3,1.3,1,.8,2.2,1.4,3.5,1.9,1.4.5,2.9.7,4.5.7s3.1-.2,4.5-.7,2.6-1.1,3.6-1.9c1-.8,1.8-1.8,2.3-2.9.6-1.1.8-2.3.8-3.5s-.2-2-.5-2.9l-5.1,2v.9h.2Z"/>
        </g>
      </g>
      <g>
        <path class="cls-10" d="M6.9,1.2c0,10.4,0,20.8,0,31.1,3.3,2,6.5,4,9.8,6.1,0-6,0-12,0-18,4.4,2.7,8.7,5.4,13.1,8,5-3,9.9-6,14.9-8.9v24.1c3.3-2.1,6.6-4.1,9.9-6.2V1.2c-8.2,4.8-16.5,9.5-24.7,14.3C22.3,10.7,14.6,6,6.9,1.2Z"/>
        <g class="cls-12">
          <path class="cls-1" d="M7.8,2.7c0,9.7,0,19.4,0,29.2,2.7,1.7,5.4,3.3,8.1,5,0-6,0-12,0-17.9,4.6,2.9,9.2,5.7,13.9,8.6,5.3-3.2,10.6-6.4,15.9-9.5,0,7.7,0,15.4,0,23,2.7-1.7,5.3-3.4,8-5.1,0-11.1,0-22.2,0-33.3-7.9,4.6-15.9,9.3-23.8,13.9C22.5,11.9,15.2,7.3,7.8,2.7Z"/>
        </g>
      </g>
      <g>
        <path class="cls-9" d="M.6,7.8c10.3,6.3,20.5,12.6,30.8,18.9v11.2l-23.1-14.4v7.6l18.9,11.6v10.8s-18.9-11.8-18.9-11.8c0,3.5,0,7,0,10.6-2.5-1.6-5.1-3.1-7.6-4.7,0-13.3,0-26.6,0-39.9Z"/>
        <path class="cls-7" d="M1.2,9.2c9.6,5.9,19.2,11.8,28.8,17.7v8.8c-7.7-4.8-15.4-9.6-23.1-14.4v10c6.3,3.9,12.6,7.8,18.9,11.6,0,2.8,0,5.6,0,8.4-6.3-3.9-12.6-7.8-18.8-11.8,0,3.4,0,6.8,0,10.2-1.9-1.2-3.8-2.5-5.8-3.7,0-12.3,0-24.6,0-36.9Z"/>
      </g>
      <path class="cls-11" d="M7.1,48.4"/>
      <path class="cls-2" d="M16,53.6"/>
      <path class="cls-8" d="M53,43.1"/>
    </g>
  </g>
</svg>