<?xml version="1.0" encoding="UTF-8"?>
<svg id="Capa_1" data-name="Capa 1" xmlns="http://www.w3.org/2000/svg" version="1.1" xmlns:xlink="http://www.w3.org/1999/xlink" viewBox="0 0 200 55">
  <defs>
    <style>
      .cls-1 {
        filter: url(#drop-shadow-2);
      }

      .cls-1, .cls-2, .cls-3 {
        fill: #fff;
        stroke-width: 0px;
      }

      .cls-3 {
        filter: url(#drop-shadow-1);
      }
    </style>
    <filter id="drop-shadow-1" filterUnits="userSpaceOnUse">
      <feOffset dx="0" dy="0"/>
      <feGaussianBlur result="blur" stdDeviation="2.8"/>
      <feFlood flood-color="#000" flood-opacity="1"/>
      <feComposite in2="blur" operator="in"/>
      <feComposite in="SourceGraphic"/>
    </filter>
    <filter id="drop-shadow-2" filterUnits="userSpaceOnUse">
      <feOffset dx="0" dy="0"/>
      <feGaussianBlur result="blur-2" stdDeviation="2.8"/>
      <feFlood flood-color="#000" flood-opacity="1"/>
      <feComposite in2="blur-2" operator="in"/>
      <feComposite in="SourceGraphic"/>
    </filter>
  </defs>
  <g>
    <path class="cls-2" d="M46,42.8v-23l-16.4,10.3v-1.3L7.1,14.4V1.5l23.6,14.6L55.9.5v36s-9.9,6.2-9.9,6.2ZM48.1,16v23l5.8-3.6V4.2s-23.2,14.3-23.2,14.3L9.1,5.2v8.1l21.5,13.6,17.4-10.9Z"/>
    <path class="cls-2" d="M27.3,54.5l-18.6-11.8v9.9l-7.7-4.9V8.3l30.5,19.1v11.3l-22.8-14.4v7.6l18.6,11.7v10.9ZM6.6,38.9l18.6,11.8v-6s-18.6-11.7-18.6-11.7v-12.5l22.8,14.4v-6.4L3.1,12v34.5l3.6,2.3v-9.9Z"/>
  </g>
  <path class="cls-3" d="M93.2,32.2l7.7,17h-5.6l-1.2-3h-7.5l-1.2,3h-5.6l7.7-17h5.7ZM92.7,42.9l-2.4-5.7-2.4,5.7h4.7ZM112.2,31.8c-1.4,0-2.8.2-4.1.7-1.3.4-2.4,1.1-3.4,1.9-1,.8-1.8,1.7-2.3,2.8-.6,1.1-.9,2.3-.9,3.6s.3,2.5.9,3.6c.6,1.1,1.4,2.1,2.3,2.9,1,.8,2.1,1.4,3.4,1.9,1.3.4,2.6.7,4,.7s1.4,0,2.1-.2c.7-.1,1.4-.3,2.3-.5l.5-.2v-5.2c-1.3,1.2-2.9,1.8-4.5,1.8s-1.5-.1-2.2-.4c-.7-.2-1.2-.6-1.7-1-.5-.4-.9-.9-1.2-1.5-.3-.6-.4-1.2-.4-1.9s.1-1.3.4-1.9c.3-.6.7-1.1,1.1-1.5.5-.4,1.1-.7,1.7-1,.7-.2,1.4-.4,2.2-.4,1.8,0,3.3.6,4.5,1.9v-5.3c-.9-.3-1.7-.5-2.5-.7-.8-.1-1.6-.2-2.4-.2ZM120.3,49.3h11.5v-3.8h-6.3v-2.9h5.9v-3.8h-5.9v-2.8h6.3v-3.8h-11.5v17ZM146.1,42.3l6.4,7h-6.6l-5-6.6v6.6h-5.3v-17h8.2c1.1,0,2.1.1,3,.4.8.3,1.5.7,2.1,1.1.5.5,1,1,1.2,1.7.3.6.4,1.3.4,2,0,1.3-.4,2.3-1.1,3.2-.7.8-1.8,1.4-3.3,1.6ZM145.1,37.7c0-.7-.3-1.2-.8-1.6-.6-.4-1.3-.5-2.4-.5h-1v4.2h1c1,0,1.8-.2,2.4-.5.6-.4.8-.9.8-1.6ZM158.8,40.8c0-.7.2-1.3.5-1.9.3-.6.7-1.1,1.2-1.5.5-.4,1.1-.8,1.8-1,.7-.2,1.4-.4,2.2-.4s1.5.1,2.2.4c.4.1.8.3,1.1.5l4.4-2.8c-.9-.7-2-1.3-3.3-1.7-1.4-.5-2.9-.7-4.5-.7s-3.2.2-4.5.7c-1.4.5-2.5,1.1-3.5,1.9-1,.8-1.8,1.8-2.3,2.9-.6,1.1-.8,2.3-.8,3.5s.3,2.4.8,3.5c.2.3.4.7.6,1l4.5-2.8c-.2-.5-.4-1.1-.4-1.7ZM170.2,40.8c0,.7-.2,1.3-.5,1.9-.3.6-.7,1.1-1.2,1.5-.5.4-1.1.7-1.8,1-.7.2-1.4.3-2.2.3s-1.5-.1-2.2-.3c-.7-.2-1.3-.6-1.8-1-.1,0-.2-.2-.3-.3l-5.1,2c.4.5.8.9,1.3,1.3,1,.8,2.2,1.4,3.5,1.9,1.4.5,2.9.7,4.5.7s3.1-.2,4.5-.7c1.4-.5,2.6-1.1,3.6-1.9,1-.8,1.8-1.8,2.3-2.9.6-1.1.8-2.3.8-3.5s-.2-2-.5-2.9l-5.1,2c0,.3.1.6.1.9Z"/>
  <path class="cls-1" d="M74.1,6.3c.8.1,1.6.4,2.5.7v5.3c-1.2-1.2-2.7-1.9-4.5-1.9s-1.5.1-2.2.4c-.7.2-1.2.6-1.7,1-.5.4-.9.9-1.1,1.5-.3.6-.4,1.2-.4,1.9s.1,1.3.4,1.9c.3.6.7,1.1,1.2,1.5.5.4,1.1.8,1.7,1,.7.2,1.4.4,2.1.4,1.7,0,3.2-.6,4.5-1.8v5.2l-.5.2c-.8.2-1.6.4-2.3.5-.7.1-1.4.2-2.1.2-1.4,0-2.7-.2-4-.7-1.3-.4-2.4-1.1-3.4-1.9-1-.8-1.8-1.8-2.3-2.9s-.9-2.3-.9-3.6.3-2.5.9-3.6c.6-1.1,1.4-2,2.3-2.8,1-.8,2.1-1.4,3.4-1.9,1.3-.4,2.6-.7,4.1-.7s1.6,0,2.4.2ZM84.7,15.1c0-.7.2-1.3.5-1.9.3-.6.7-1.1,1.2-1.5.5-.4,1.1-.8,1.8-1,.7-.2,1.4-.4,2.2-.4s1.5.1,2.2.4c.4.1.8.3,1.2.5l4.4-2.8c-.9-.7-2-1.3-3.3-1.7-1.4-.5-2.9-.7-4.5-.7s-3.2.2-4.5.7c-1.4.5-2.5,1.1-3.5,1.9-1,.8-1.8,1.8-2.3,2.9-.6,1.1-.8,2.3-.8,3.5s.3,2.4.8,3.5c.2.3.4.7.6,1l4.5-2.8c-.2-.5-.4-1.1-.4-1.7ZM96.2,15.1c0,.7-.2,1.3-.5,1.9-.3.6-.7,1.1-1.2,1.5-.5.4-1.1.7-1.8,1-.7.2-1.4.3-2.2.3s-1.5-.1-2.2-.3c-.7-.2-1.3-.6-1.8-1-.1,0-.2-.2-.3-.3l-5.1,2c.4.5.8.9,1.3,1.3,1,.8,2.2,1.4,3.5,1.9,1.4.5,2.9.7,4.5.7s3.1-.2,4.5-.7c1.4-.5,2.6-1.1,3.6-1.9,1-.8,1.8-1.8,2.3-2.9.5-1.1.8-2.3.8-3.5s-.2-2-.5-2.9l-5.1,2c0,.3,0,.6,0,.9ZM115.5,16.7l6.4,7h-6.6l-5-6.6v6.6h-5.3V6.6h8.2c1.1,0,2.1.1,3,.4.8.3,1.5.7,2.1,1.1.5.5,1,1,1.2,1.7.3.6.4,1.3.4,2,0,1.3-.4,2.3-1.1,3.2-.7.8-1.8,1.4-3.3,1.6ZM114.5,12.1c0-.7-.3-1.2-.8-1.6-.6-.4-1.4-.5-2.4-.5h-1v4.2h1c1,0,1.8-.2,2.4-.5.6-.4.8-.9.8-1.6ZM122.1,10.4h4.3v13.3h5.3v-13.3h4.3v-3.8h-13.9v3.8ZM138.4,23.6h11.5v-3.8h-6.3v-2.9h5.9v-3.8h-5.9v-2.8h6.3v-3.8h-11.5v17ZM179.8,11.9c.5,1,.8,2.1.8,3.2s-.3,2.2-.8,3.2c-.5,1-1.2,1.9-2.1,2.7-.9.8-2,1.4-3.2,1.9-1.2.5-2.5.7-3.9.7h-7.8V6.6h7.8c1.4,0,2.7.2,3.9.7,1.2.5,2.3,1.1,3.2,1.9.9.8,1.6,1.7,2.1,2.7ZM175.1,15.1c0-.7-.1-1.3-.4-1.9-.3-.6-.6-1.1-1.1-1.5-.5-.4-1.1-.7-1.8-1-.7-.2-1.5-.4-2.4-.4h-1.2v9.5h1.2c.9,0,1.7-.1,2.4-.4.7-.2,1.3-.6,1.8-1,.5-.4.9-.9,1.1-1.5.3-.6.4-1.2.4-1.9ZM183.9,23.6h11.5v-3.8h-6.3v-2.9h5.9v-3.8h-5.9v-2.8h6.3v-3.8h-11.5v17Z"/>
</svg>